<?xml version="1.0" standalone="no"?>
<!DOCTYPE svg PUBLIC "-//W3C//DTD SVG 20010904//EN"
 "http://www.w3.org/TR/2001/REC-SVG-20010904/DTD/svg10.dtd">
<svg version="1.0" xmlns="http://www.w3.org/2000/svg"
 width="225.000000pt" height="225.000000pt" viewBox="0 0 225.000000 225.000000"
 preserveAspectRatio="xMidYMid meet">

<g transform="translate(0.000000,225.000000) scale(0.100000,-0.100000)"
fill="#000000" stroke="none">
<path d="M968 1603 c12 -2 32 -2 45 0 12 2 2 4 -23 4 -25 0 -35 -2 -22 -4z"/>
<path d="M872 1576 c-18 -13 -36 -27 -40 -31 -9 -10 15 3 48 25 14 10 34 20
45 23 l20 5 -20 0 c-11 1 -35 -9 -53 -22z"/>
<path d="M1040 1596 c0 -2 9 -6 20 -9 11 -3 18 -1 14 4 -5 9 -34 13 -34 5z"/>
<path d="M1091 1578 c2 -2 20 -16 39 -33 l35 -30 -29 33 c-17 17 -34 32 -40
32 -5 0 -7 -1 -5 -2z"/>
<path d="M540 1535 c-13 -14 -21 -27 -18 -30 2 -3 14 9 27 25 26 37 23 39 -9
5z"/>
<path d="M580 1531 c0 -5 5 -13 10 -16 6 -3 10 -2 10 4 0 5 -4 13 -10 16 -5 3
-10 2 -10 -4z"/>
<path d="M810 1519 c0 -5 5 -7 10 -4 6 3 10 8 10 11 0 2 -4 4 -10 4 -5 0 -10
-5 -10 -11z"/>
<path d="M918 1516 c-20 -6 -40 -15 -45 -20 -5 -5 0 -6 12 -2 11 4 47 14 80
21 46 10 52 13 25 13 -19 0 -52 -5 -72 -12z"/>
<path d="M1070 1503 c36 -15 45 -24 46 -43 0 -14 8 -38 17 -55 20 -37 22 -29
3 16 -7 19 -11 39 -9 46 5 15 -32 40 -72 48 -20 4 -15 0 15 -12z"/>
<path d="M1166 1497 c3 -10 9 -15 12 -12 3 3 0 11 -7 18 -10 9 -11 8 -5 -6z"/>
<path d="M790 1480 c-6 -11 -8 -20 -6 -20 3 0 10 9 16 20 6 11 8 20 6 20 -3 0
-10 -9 -16 -20z"/>
<path d="M504 1475 c-3 -8 -4 -20 -2 -27 3 -7 7 -1 10 15 6 29 1 36 -8 12z"/>
<path d="M973 1483 c9 -2 25 -2 35 0 9 3 1 5 -18 5 -19 0 -27 -2 -17 -5z"/>
<path d="M920 1473 c0 -5 5 -15 11 -23 9 -13 10 -13 6 2 -3 9 -1 19 6 22 7 2
4 5 -5 5 -10 1 -18 -2 -18 -6z"/>
<path d="M1038 1473 c7 -3 16 -2 19 1 4 3 -2 6 -13 5 -11 0 -14 -3 -6 -6z"/>
<path d="M1188 1415 c2 -30 1 -62 -3 -72 -6 -16 -8 -15 -21 7 -10 16 -13 18
-9 5 15 -44 17 -56 9 -54 -5 1 -22 -3 -39 -10 -30 -12 -62 -11 -100 4 -15 6
-17 5 -9 -4 20 -22 91 -26 119 -7 34 23 31 9 -7 -33 -22 -24 -25 -29 -8 -16
35 28 48 45 65 84 16 36 21 136 7 145 -5 3 -7 -19 -4 -49z"/>
<path d="M835 1403 c-14 -31 -23 -58 -20 -61 3 -3 5 -3 5 0 0 3 11 31 25 62
14 31 22 56 20 56 -3 0 -17 -25 -30 -57z"/>
<path d="M1016 1398 l-28 -63 -23 50 c-30 63 -32 50 -3 -17 l21 -50 -24 -20
-24 -20 30 17 c23 13 36 33 57 88 15 39 26 72 24 74 -1 2 -15 -25 -30 -59z"/>
<path d="M626 1424 c3 -17 1 -47 -4 -67 -6 -21 -7 -35 -2 -32 15 9 23 92 11
112 -9 15 -10 12 -5 -13z"/>
<path d="M872 1400 c-12 -29 -20 -55 -18 -57 2 -2 24 -3 49 -1 l45 3 -27 54
-27 53 -22 -52z m43 -13 l15 -37 -34 0 -34 0 15 40 c9 22 18 39 19 37 2 -2 10
-20 19 -40z"/>
<path d="M1070 1430 c0 -5 4 -10 9 -10 5 0 13 -9 16 -21 4 -11 9 -18 11 -16 7
7 -18 57 -28 57 -4 0 -8 -4 -8 -10z"/>
<path d="M492 1400 c0 -19 2 -27 5 -17 2 9 2 25 0 35 -3 9 -5 1 -5 -18z"/>
<path d="M772 1400 c0 -14 2 -19 5 -12 2 6 2 18 0 25 -3 6 -5 1 -5 -13z"/>
<path d="M1049 1384 c-5 -15 -12 -31 -15 -35 -3 -5 17 -9 45 -9 43 0 49 2 44
17 -4 11 -8 12 -11 5 -3 -11 -62 -18 -62 -8 0 3 4 16 10 30 5 14 7 26 5 26 -3
0 -10 -12 -16 -26z"/>
<path d="M505 1323 c9 -21 26 -48 39 -61 22 -22 23 -22 37 -5 12 16 12 17 -2
6 -20 -16 -40 4 -64 60 -8 20 -18 37 -20 37 -3 0 2 -17 10 -37z"/>
<path d="M786 1325 c4 -8 10 -15 15 -15 4 0 7 -6 5 -12 -1 -7 -1 -10 1 -6 3 5
14 3 26 -3 13 -7 8 1 -12 20 -39 35 -43 37 -35 16z"/>
<path d="M878 1273 c12 -2 30 -2 40 0 9 3 -1 5 -23 4 -22 0 -30 -2 -17 -4z"/>
<path d="M829 1256 c8 -9 34 -29 58 -43 38 -22 52 -25 113 -21 38 2 75 9 82
16 10 10 6 10 -20 1 -18 -6 -60 -9 -93 -7 -47 3 -69 11 -107 38 -26 18 -41 25
-33 16z"/>
<path d="M170 890 l0 -160 25 0 c22 0 24 4 27 58 l3 57 54 5 c65 7 101 41 101
95 0 80 -34 105 -140 105 l-70 0 0 -160z m148 98 c17 -17 15 -58 -5 -80 -10
-11 -30 -18 -55 -18 l-38 0 0 55 0 55 43 0 c24 0 48 -5 55 -12z"/>
<path d="M1554 1036 c-9 -24 4 -48 23 -44 12 2 18 12 18 28 0 29 -32 41 -41
16z"/>
<path d="M1210 1000 c0 -38 -1 -39 -30 -34 -47 10 -76 -3 -94 -40 -46 -97 14
-222 91 -187 20 9 28 9 33 1 4 -7 16 -10 26 -8 17 3 19 16 22 156 l3 152 -26
0 c-23 0 -25 -4 -25 -40z m-5 -140 c0 -49 -4 -65 -17 -74 -32 -20 -53 4 -56
66 -3 65 14 93 51 79 20 -7 22 -15 22 -71z"/>
<path d="M447 959 c-44 -26 -60 -109 -33 -174 17 -41 42 -55 95 -55 55 0 71 8
71 36 0 21 -3 23 -26 14 -38 -15 -62 -12 -84 10 -38 38 -27 50 46 50 l67 0 -6
37 c-9 55 -37 88 -78 90 -19 2 -42 -2 -52 -8z m71 -41 c7 -7 12 -20 12 -30 0
-14 -8 -18 -35 -18 -27 0 -35 4 -35 18 0 20 18 42 35 42 6 0 16 -5 23 -12z"/>
<path d="M654 947 c-23 -20 -28 -34 -32 -84 -7 -99 28 -143 103 -129 30 6 33
5 28 -14 -10 -38 -48 -47 -107 -24 -12 5 -16 0 -16 -20 0 -18 6 -27 23 -31 63
-13 94 -9 122 20 24 23 25 29 25 165 0 133 -1 140 -20 140 -11 0 -20 -4 -20
-10 0 -6 -9 -6 -26 0 -37 15 -50 12 -80 -13z m94 -29 c7 -7 12 -38 12 -70 0
-53 -2 -60 -25 -70 -34 -15 -55 5 -62 60 -9 67 38 117 75 80z"/>
<path d="M873 963 c-7 -2 -13 -14 -13 -25 0 -17 4 -19 39 -13 29 5 42 2 55
-10 26 -26 19 -35 -28 -35 -36 0 -48 -5 -65 -26 -55 -69 13 -155 89 -114 13 7
21 7 25 0 3 -5 19 -10 36 -10 22 0 29 5 29 19 0 10 -7 21 -15 25 -11 4 -15 23
-15 81 0 93 -16 115 -82 114 -24 0 -49 -3 -55 -6z m97 -148 c0 -29 -4 -36 -27
-41 -19 -5 -30 -2 -39 10 -22 31 1 66 44 66 19 0 22 -5 22 -35z"/>
<path d="M1343 963 c-7 -2 -13 -14 -13 -25 0 -17 5 -19 29 -13 34 7 71 -9 71
-30 0 -11 -12 -15 -40 -15 -53 0 -80 -27 -80 -79 0 -30 6 -44 22 -55 26 -18
61 -21 88 -6 13 7 21 7 25 0 3 -5 19 -10 36 -10 22 0 29 5 29 20 0 11 -7 20
-15 20 -12 0 -15 15 -15 75 0 67 -3 79 -25 100 -23 24 -77 33 -112 18z m87
-148 c0 -39 -21 -55 -49 -38 -36 23 -19 73 25 73 21 0 24 -5 24 -35z"/>
<path d="M1693 963 c-7 -2 -13 -14 -13 -25 0 -17 5 -19 29 -13 34 7 71 -9 71
-30 0 -11 -11 -15 -39 -15 -75 0 -114 -69 -70 -124 19 -24 27 -27 58 -22 46 8
49 8 89 0 28 -5 32 -4 32 15 0 11 -4 21 -9 21 -5 0 -11 36 -13 81 -3 70 -6 83
-27 100 -22 18 -79 24 -108 12z m85 -150 c-3 -35 -6 -38 -33 -38 -24 0 -31 5
-33 23 -5 30 14 52 45 52 22 0 24 -4 21 -37z"/>
<path d="M1976 963 c-4 -4 -22 -6 -41 -5 l-35 3 0 -116 0 -115 25 0 c25 0 25
1 25 84 0 91 10 110 52 104 22 -3 23 -8 26 -95 3 -91 3 -93 27 -93 25 0 25 1
25 95 0 88 -2 98 -25 120 -23 24 -64 33 -79 18z"/>
<path d="M1552 848 c3 -109 4 -113 26 -116 22 -3 22 -2 22 112 l0 116 -25 0
-26 0 3 -112z"/>
</g>
</svg>
